<svg width="64" height="64" viewBox="0 0 64 64" fill="none" xmlns="http://www.w3.org/2000/svg">
<path fill-rule="evenodd" clip-rule="evenodd" d="M42.7069 22.7071C43.0974 22.3166 43.0974 21.6834 42.7069 21.2929C42.3164 20.9024 41.6832 20.9024 41.2927 21.2929L32 30.5856L22.7072 21.2929C22.3167 20.9024 21.6835 20.9024 21.293 21.2929C20.9025 21.6834 20.9025 22.3166 21.293 22.7071L30.5858 31.9998L21.2929 41.2927C20.9024 41.6832 20.9024 42.3164 21.2929 42.7069C21.6834 43.0974 22.3166 43.0974 22.7071 42.7069L32 33.414L41.2929 42.7069C41.6834 43.0974 42.3166 43.0974 42.7071 42.7069C43.0976 42.3164 43.0976 41.6832 42.7071 41.2927L33.4142 31.9998L42.7069 22.7071Z" fill="#0C0310"/>
</svg>
