<svg width="32" height="32" viewBox="0 0 32 32" fill="none" xmlns="http://www.w3.org/2000/svg">
<path d="M28.2501 16C28.2501 12.7511 26.9595 9.63527 24.6622 7.33795C22.3648 5.04063 19.249 3.75001 16.0001 3.75001C12.9155 3.74716 9.94328 4.90814 7.67727 7.00105C5.41126 9.09395 4.01825 11.9647 3.77648 15.0399C3.53471 18.115 4.46198 21.1682 6.37308 23.5895C8.28418 26.0108 11.0384 27.622 14.0856 28.1013V19.5403H10.9776V16H14.0874V13.3015C14.0874 10.232 15.9161 8.5345 18.7144 8.5345C20.0549 8.5345 21.4566 8.77426 21.4566 8.77426V11.7895H19.9114C18.3889 11.7895 17.9164 12.7345 17.9164 13.7023V16H21.3131L20.7706 19.5403H17.9146V28.1013C20.796 27.645 23.42 26.1755 25.3146 23.9572C27.2093 21.7389 28.2502 18.9173 28.2501 16Z" fill="white"/>
<path d="M20.7688 19.5402L21.3113 16H17.9145V13.7022C17.9145 12.7345 18.387 11.7895 19.9095 11.7895H21.4548V8.77246C21.4548 8.77246 20.053 8.53271 18.7125 8.53271C15.9125 8.53271 14.0855 10.2302 14.0855 13.2997V16H10.9775V19.5402H14.0873V28.1012C15.3558 28.3009 16.6478 28.3009 17.9163 28.1012V19.5402H20.7688Z" fill="#1877F2"/>
</svg>
