<svg width="32" height="32" viewBox="0 0 32 32" fill="none" xmlns="http://www.w3.org/2000/svg">
<g clip-path="url(#clip0_25_264)">
<path fill-rule="evenodd" clip-rule="evenodd" d="M9.16363 16.0001C9.16363 15.238 9.29021 14.5073 9.51613 13.822L5.56172 10.8022C4.79103 12.367 4.35681 14.1302 4.35681 16.0001C4.35681 17.8684 4.79049 19.6305 5.56012 21.1942L9.51239 18.1686C9.28861 17.4865 9.16363 16.7585 9.16363 16.0001Z" fill="#FBBC05"/>
<path fill-rule="evenodd" clip-rule="evenodd" d="M16.1069 9.0666C17.7625 9.0666 19.258 9.65327 20.433 10.6133L23.8512 7.19993C21.7682 5.3866 19.0978 4.2666 16.1069 4.2666C11.4635 4.2666 7.47274 6.92207 5.56177 10.8021L9.51618 13.8218C10.4273 11.0559 13.0246 9.0666 16.1069 9.0666Z" fill="#EB4335"/>
<path fill-rule="evenodd" clip-rule="evenodd" d="M16.1069 22.9334C13.0246 22.9334 10.4273 20.9441 9.51618 18.1782L5.56177 21.1974C7.47274 25.078 11.4635 27.7334 16.1069 27.7334C18.9728 27.7334 21.7089 26.7158 23.7625 24.8092L20.0089 21.9073C18.9498 22.5745 17.6162 22.9334 16.1069 22.9334Z" fill="#34A853"/>
<path fill-rule="evenodd" clip-rule="evenodd" d="M27.3227 16C27.3227 15.3067 27.2159 14.56 27.0557 13.8667H16.1068V18.4H22.4091C22.094 19.9456 21.2362 21.1339 20.0089 21.9072L23.7625 24.8091C25.9197 22.807 27.3227 19.8246 27.3227 16Z" fill="#4285F4"/>
</g>
<defs>
<clipPath id="clip0_25_264">
<rect width="24" height="24" fill="white" transform="translate(4 4)"/>
</clipPath>
</defs>
</svg>
