<svg width="64" height="64" viewBox="0 0 64 64" fill="none" xmlns="http://www.w3.org/2000/svg">
<path fill-rule="evenodd" clip-rule="evenodd" d="M17 30C17 22.8203 22.8203 17 30 17C37.1797 17 43 22.8203 43 30C43 37.1797 37.1797 43 30 43C22.8203 43 17 37.1797 17 30ZM30 15C21.7157 15 15 21.7157 15 30C15 38.2843 21.7157 45 30 45C33.3768 45 36.493 43.8842 39 42.0011C39.0003 42.2567 39.0979 42.5121 39.2929 42.7071L45.2929 48.7071C45.6834 49.0976 46.3166 49.0976 46.7071 48.7071C47.0976 48.3166 47.0976 47.6834 46.7071 47.2929L40.7071 41.2929C40.558 41.1437 40.3734 41.0516 40.1805 41.0163C43.1443 38.2761 45 34.3548 45 30C45 21.7157 38.2843 15 30 15Z" fill="black"/>
</svg>
