<svg width="32" height="32" viewBox="0 0 32 32" fill="none" xmlns="http://www.w3.org/2000/svg">
<g clip-path="url(#clip0_25_266)">
<path fill-rule="evenodd" clip-rule="evenodd" d="M28 8.36765C27.1182 8.76923 26.1687 9.04081 25.1727 9.16215C26.1898 8.5381 26.9702 7.54858 27.3379 6.36981C26.3856 6.94764 25.3333 7.368 24.2092 7.59335C23.3133 6.61249 22.0328 6 20.6156 6C17.8982 6 15.6936 8.26074 15.6936 11.0488C15.6936 11.4446 15.7359 11.8288 15.8204 12.1986C11.7281 11.9877 8.10072 9.97977 5.67072 6.92163C5.2467 7.66992 5.00439 8.5381 5.00439 9.46262C5.00439 11.2134 5.87357 12.7591 7.19493 13.6649C6.38916 13.6403 5.62845 13.4106 4.96355 13.035V13.0971C4.96355 15.5442 6.66103 17.5854 8.91495 18.0477C8.5022 18.1661 8.06691 18.2253 7.61754 18.2253C7.30058 18.2253 6.99067 18.195 6.69061 18.1358C7.31748 20.1408 9.1347 21.6013 11.29 21.6403C9.6052 22.9953 7.48089 23.8028 5.17485 23.8028C4.7776 23.8028 4.38457 23.7797 4 23.7335C6.17926 25.1636 8.76844 26 11.5478 26C20.6057 26 25.5573 18.3077 25.5573 11.6352C25.5573 11.4157 25.5531 11.1961 25.5446 10.9809C26.5068 10.2687 27.3421 9.38028 28 8.36765Z" fill="#FCFFFF"/>
</g>
<defs>
<clipPath id="clip0_25_266">
<rect width="24" height="24" fill="white" transform="translate(4 4)"/>
</clipPath>
</defs>
</svg>
