<svg width="64" height="64" viewBox="0 0 64 64" fill="none" xmlns="http://www.w3.org/2000/svg">
<path fill-rule="evenodd" clip-rule="evenodd" d="M35.4568 45.7768C35.2807 45.85 35.0916 45.8871 34.901 45.8862C34.7101 45.8871 34.5212 45.85 34.3451 45.7768C34.169 45.7037 34.0091 45.596 33.8752 45.4604C33.6032 45.1882 33.4505 44.8193 33.4505 44.4346C33.4505 44.05 33.6032 43.6811 33.8752 43.4087L43.0106 34.2733H19.4172C19.0322 34.2733 18.6629 34.1204 18.3908 33.848C18.1185 33.5759 17.9655 33.2066 17.9655 32.8216C17.9655 32.4367 18.1185 32.0674 18.3908 31.7953C18.6629 31.5229 19.0322 31.37 19.4172 31.37H43.0106L33.8752 22.2346C33.6187 21.9594 33.4792 21.5955 33.4857 21.2194C33.4923 20.8434 33.6448 20.4845 33.9108 20.2186C34.1767 19.9526 34.5355 19.8003 34.9116 19.7936C35.2877 19.787 35.6515 19.9266 35.9268 20.183L47.5028 31.759C47.5155 31.7709 47.5281 31.7829 47.5404 31.7953C47.8126 32.0674 47.9655 32.4367 47.9655 32.8216C47.9655 33.2066 47.8126 33.5759 47.5404 33.848C47.5281 33.8603 47.5157 33.8723 47.503 33.8841L35.9268 45.4604C35.7926 45.596 35.633 45.7037 35.4568 45.7768Z" fill="black"/>
</svg>
