<svg width="64" height="65" viewBox="0 0 64 65" fill="none" xmlns="http://www.w3.org/2000/svg">
<path d="M48.912 39.9587L46.7 36.2667C45.9083 34.9472 45.49 33.4374 45.49 31.8987V26.6467C45.49 23.0689 44.0687 19.6377 41.5389 17.1078C39.009 14.5779 35.5778 13.1567 32 13.1567C28.4222 13.1567 24.991 14.5779 22.4611 17.1078C19.9313 19.6377 18.51 23.0689 18.51 26.6467V31.9007C18.513 33.4385 18.0982 34.9482 17.31 36.2687L15.088 39.9587C14.7152 40.5805 14.514 41.2901 14.5049 42.0151C14.4958 42.74 14.679 43.4544 15.036 44.0855C15.393 44.7165 15.911 45.2416 16.5371 45.6072C17.1631 45.9728 17.875 46.1659 18.6 46.1667H26.56C26.544 46.3347 26.494 46.4967 26.494 46.6667C26.494 48.1254 27.0735 49.5243 28.1049 50.5558C29.1364 51.5872 30.5353 52.1667 31.994 52.1667C33.4527 52.1667 34.8516 51.5872 35.8831 50.5558C36.9145 49.5243 37.494 48.1254 37.494 46.6667C37.494 46.4967 37.444 46.3347 37.428 46.1667H45.4C46.1243 46.1661 46.8356 45.9736 47.4614 45.6088C48.0871 45.2441 48.6051 44.72 48.9626 44.0901C49.32 43.4601 49.5042 42.7466 49.4964 42.0223C49.4886 41.2981 49.289 40.5888 48.918 39.9667L48.912 39.9587ZM34.5 46.6667C34.5 47.3297 34.2366 47.9656 33.7678 48.4344C33.2989 48.9033 32.663 49.1667 32 49.1667C31.337 49.1667 30.7011 48.9033 30.2322 48.4344C29.7634 47.9656 29.5 47.3297 29.5 46.6667C29.5048 46.4982 29.527 46.3306 29.566 46.1667H34.434C34.473 46.3306 34.4952 46.4982 34.5 46.6667ZM46.354 42.6087C46.2592 42.7796 46.1199 42.9217 45.9509 43.0199C45.7819 43.1181 45.5895 43.1689 45.394 43.1667H18.6C18.4052 43.1676 18.2136 43.1166 18.0449 43.019C17.8763 42.9214 17.7366 42.7807 17.6403 42.6113C17.544 42.4419 17.4946 42.25 17.497 42.0552C17.4994 41.8603 17.5536 41.6696 17.654 41.5027L19.868 37.8107C20.938 36.025 21.5034 33.9824 21.504 31.9007V26.6467C21.504 23.8645 22.6092 21.1964 24.5764 19.2291C26.5437 17.2619 29.2119 16.1567 31.994 16.1567C34.7761 16.1567 37.4443 17.2619 39.4115 19.2291C41.3788 21.1964 42.484 23.8645 42.484 26.6467V31.9007C42.4846 33.9824 43.05 36.025 44.12 37.8107L46.334 41.5027C46.4365 41.6682 46.4925 41.8583 46.496 42.0529C46.4995 42.2476 46.4505 42.4396 46.354 42.6087Z" fill="black"/>
</svg>
