<svg width="64" height="65" viewBox="0 0 64 65" fill="none" xmlns="http://www.w3.org/2000/svg">
<path fill-rule="evenodd" clip-rule="evenodd" d="M32 16.0333L37.3 24.3333H26.6L32 16.0333ZM32 10.3333C31.6564 10.3481 31.3217 10.447 31.0253 10.6213C30.7289 10.7957 30.4798 11.0402 30.3 11.3333L21.2 25.3333C21.0494 25.6452 20.9712 25.987 20.9712 26.3333C20.9712 26.6796 21.0494 27.0215 21.2 27.3333C21.3647 27.6396 21.6103 27.8949 21.9101 28.0712C22.2098 28.2475 22.5523 28.3382 22.9 28.3333H41C41.3436 28.3186 41.6783 28.2197 41.9747 28.0453C42.2711 27.871 42.5202 27.6265 42.7 27.3333C42.8978 27.0373 43.0033 26.6893 43.0033 26.3333C43.0033 25.9773 42.8978 25.6293 42.7 25.3333L33.7 11.3333C33.5353 11.027 33.2897 10.7718 32.9899 10.5955C32.6902 10.4191 32.3477 10.3285 32 10.3333ZM51 51.3333H37C36.4696 51.3333 35.9609 51.1226 35.5858 50.7475C35.2107 50.3725 35 49.8638 35 49.3333V35.3333C35 34.8029 35.2107 34.2942 35.5858 33.9191C35.9609 33.544 36.4696 33.3333 37 33.3333H51C51.5304 33.3333 52.0391 33.544 52.4142 33.9191C52.7893 34.2942 53 34.8029 53 35.3333V49.3333C53 49.8638 52.7893 50.3725 52.4142 50.7475C52.0391 51.1226 51.5304 51.3333 51 51.3333ZM39 47.3333H49V37.3333H39V47.3333ZM24.3334 37.3445C23.3467 36.6852 22.1867 36.3333 21 36.3333C19.4087 36.3333 17.8826 36.9655 16.7574 38.0907C15.6321 39.2159 15 40.742 15 42.3333C15 43.52 15.3519 44.68 16.0112 45.6667C16.6705 46.6534 17.6075 47.4225 18.7039 47.8766C19.8003 48.3307 21.0067 48.4496 22.1705 48.218C23.3344 47.9865 24.4035 47.4151 25.2426 46.576C26.0818 45.7369 26.6532 44.6678 26.8847 43.5039C27.1162 42.34 26.9974 41.1336 26.5433 40.0372C26.0892 38.9409 25.3201 38.0038 24.3334 37.3445ZM15.4443 34.0186C17.0888 32.9198 19.0222 32.3333 21 32.3333C22.3132 32.3333 23.6136 32.592 24.8268 33.0945C26.0401 33.5971 27.1425 34.3337 28.0711 35.2623C28.9997 36.1908 29.7362 37.2932 30.2388 38.5065C30.7413 39.7197 31 41.0201 31 42.3333C31 44.3111 30.4135 46.2445 29.3147 47.889C28.2159 49.5335 26.6541 50.8152 24.8268 51.5721C22.9996 52.329 20.9889 52.527 19.0491 52.1412C17.1093 51.7553 15.3275 50.8029 13.9289 49.4044C12.5304 48.0059 11.578 46.224 11.1922 44.2842C10.8063 42.3444 11.0043 40.3338 11.7612 38.5065C12.5181 36.6792 13.7998 35.1174 15.4443 34.0186Z" fill="black"/>
</svg>
