<svg width="48" height="49" viewBox="0 0 48 49" fill="none" xmlns="http://www.w3.org/2000/svg">
<path d="M20.0926 35.6301L20.9692 37.6018C21.2298 38.1886 21.6552 38.6874 22.1935 39.0373C22.732 39.3873 23.3604 39.5736 24.0025 39.5734C24.6447 39.5736 25.2732 39.3873 25.8115 39.0373C26.35 38.6874 26.7753 38.1886 27.0358 37.6018L27.9126 35.6301C28.2246 34.9305 28.7496 34.3473 29.4126 33.9634C30.0798 33.5785 30.8515 33.4146 31.6176 33.4951L33.7626 33.7234C34.401 33.7909 35.0454 33.6718 35.6176 33.3804C36.1897 33.0891 36.6651 32.6379 36.9859 32.0818C37.3071 31.5259 37.4602 30.8889 37.4265 30.2478C37.3927 29.6067 37.1737 28.9891 36.7959 28.4701L35.5258 26.725C35.0737 26.0991 34.8321 25.3456 34.8358 24.5734C34.8357 23.8033 35.0796 23.053 35.5326 22.4301L36.8025 20.6851C37.1803 20.166 37.3995 19.5485 37.4331 18.9074C37.4668 18.2663 37.3138 17.6292 36.9925 17.0734C36.6717 16.5173 36.1963 16.0662 35.6242 15.7748C35.0521 15.4834 34.4077 15.3642 33.7692 15.4318L31.6242 15.6601C30.8583 15.7405 30.0864 15.5766 29.4192 15.1918C28.7548 14.8058 28.2298 14.2195 27.9192 13.5168L27.0358 11.5451C26.7753 10.9582 26.35 10.4595 25.8115 10.1095C25.2732 9.75955 24.6447 9.57332 24.0025 9.57343C23.3604 9.57332 22.732 9.75955 22.1935 10.1095C21.6552 10.4595 21.2298 10.9582 20.9692 11.5451L20.0926 13.5168C19.782 14.2195 19.2569 14.8058 18.5926 15.1918C17.9254 15.5766 17.1536 15.7405 16.3876 15.6601L14.2359 15.4318C13.5974 15.3642 12.953 15.4834 12.3809 15.7748C11.8087 16.0662 11.3334 16.5173 11.0126 17.0734C10.6913 17.6292 10.5382 18.2663 10.572 18.9074C10.6057 19.5485 10.8247 20.166 11.2026 20.6851L12.4726 22.4301C12.9255 23.053 13.1694 23.8033 13.1692 24.5734C13.1694 25.3435 12.9255 26.094 12.4726 26.7168L11.2026 28.4617C10.8247 28.9807 10.6057 29.5983 10.572 30.2394C10.5382 30.8805 10.6913 31.5177 11.0126 32.0734C11.3337 32.6293 11.8091 33.0802 12.3812 33.3715C12.9532 33.6628 13.5974 33.7822 14.2359 33.715L16.3809 33.4867C17.1469 33.4063 17.9187 33.5703 18.5859 33.955C19.2527 34.3399 19.7802 34.9264 20.0926 35.6301Z" stroke="#8590AB" stroke-width="2.5" stroke-linecap="round" stroke-linejoin="round"/>
<path d="M23.9998 29.0734C26.4852 29.0734 28.4998 27.0588 28.4998 24.5734C28.4998 22.0881 26.4852 20.0734 23.9998 20.0734C21.5146 20.0734 19.4999 22.0881 19.4999 24.5734C19.4999 27.0588 21.5146 29.0734 23.9998 29.0734Z" stroke="#8590AB" stroke-width="2.5" stroke-linecap="round" stroke-linejoin="round"/>
</svg>
