<svg width="64" height="65" viewBox="0 0 64 65" fill="none" xmlns="http://www.w3.org/2000/svg">
<path fill-rule="evenodd" clip-rule="evenodd" d="M16 21.8446C16 18.531 18.6863 15.8447 22 15.8447H32H42C45.3138 15.8447 48 18.531 48 21.8446V31.8446V41.8446C48 45.1584 45.3138 47.8446 42 47.8446H32H22C18.6863 47.8446 16 45.1584 16 41.8446V31.8446V21.8446ZM22 19.8447C20.8954 19.8447 20 20.7401 20 21.8446V29.8446H30V19.8447H22ZM34 19.8447V29.8446H44V21.8446C44 20.7401 43.1046 19.8447 42 19.8447H34ZM44 33.8446H34V43.8446H42C43.1046 43.8446 44 42.9492 44 41.8446V33.8446ZM30 43.8446V33.8446H20V41.8446C20 42.9492 20.8954 43.8446 22 43.8446H30Z" fill="black"/>
</svg>
