<svg width="64" height="65" viewBox="0 0 64 65" fill="none" xmlns="http://www.w3.org/2000/svg">
<path fill-rule="evenodd" clip-rule="evenodd" d="M38.4252 20.1729L15.8745 42.8136L15.8744 42.8137C15.3144 43.3758 15 44.137 15 44.9307V48.3177C15 48.8794 15.4563 49.3333 16.0077 49.3333H19.3653C20.163 49.3333 20.9279 49.0156 21.4908 48.4504L22.1993 49.1561L21.4908 48.4504L44.0517 25.7995L38.4252 20.1729ZM39.8366 18.7559L45.4631 24.3825L47.4217 22.4161C49.5764 20.2528 49.2683 17.8398 48.0235 16.494C47.3862 15.8049 46.4794 15.3594 45.4245 15.3344C44.3819 15.3098 43.1184 15.6962 41.779 16.8057L39.8366 18.7559ZM49.4918 15.136C51.5094 17.3175 51.7032 20.9516 48.8387 23.8275L22.9079 49.8618C21.9696 50.8038 20.6948 51.3333 19.3653 51.3333H16.0077C14.3414 51.3333 13 49.9737 13 48.3177V44.9307C13 43.608 13.524 42.3393 14.4574 41.4022L14.4575 41.4022L40.3949 15.3613C40.4162 15.3398 40.4385 15.3194 40.4617 15.3C42.1213 13.9115 43.8567 13.2968 45.4717 13.335C47.0832 13.3731 48.4978 14.0613 49.4918 15.136ZM33 50.3333C33 49.781 33.4477 49.3333 34 49.3333H50C50.5523 49.3333 51 49.781 51 50.3333C51 50.8856 50.5523 51.3333 50 51.3333H34C33.4477 51.3333 33 50.8856 33 50.3333Z" fill="#323232"/>
</svg>
