<svg width="64" height="65" viewBox="0 0 64 65" fill="none" xmlns="http://www.w3.org/2000/svg">
<path fill-rule="evenodd" clip-rule="evenodd" d="M16 32.3333C16 28.6732 16.1987 25.8685 16.6804 23.7013C17.157 21.5567 17.8836 20.1609 18.8556 19.1889C19.8276 18.2169 21.2234 17.4903 23.3679 17.0137C25.5352 16.5321 28.3399 16.3333 32 16.3333C35.6601 16.3333 38.4648 16.5321 40.6321 17.0137C42.7766 17.4903 44.1724 18.2169 45.1444 19.1889C46.1164 20.1609 46.843 21.5567 47.3196 23.7013C47.8013 25.8685 48 28.6732 48 32.3333C48 35.9934 47.8013 38.7981 47.3196 40.9654C46.843 43.1099 46.1164 44.5058 45.1444 45.4777C44.1724 46.4497 42.7766 47.1763 40.6321 47.6529C38.4648 48.1346 35.6601 48.3333 32 48.3333C28.3399 48.3333 25.5352 48.1346 23.3679 47.6529C21.2234 47.1763 19.8276 46.4497 18.8556 45.4777C17.8836 44.5058 17.157 43.1099 16.6804 40.9654C16.1987 38.7981 16 35.9934 16 32.3333ZM32 12.3333C28.2486 12.3333 25.0976 12.5317 22.5001 13.109C19.88 13.6913 17.7023 14.6853 16.0272 16.3605C14.352 18.0356 13.3579 20.2134 12.7756 22.8335C12.1984 25.4309 12 28.5819 12 32.3333C12 36.0847 12.1984 39.2358 12.7756 41.8332C13.3579 44.4533 14.352 46.631 16.0272 48.3062C17.7023 49.9813 19.88 50.9754 22.5001 51.5577C25.0976 52.1349 28.2486 52.3333 32 52.3333C35.7514 52.3333 38.9024 52.1349 41.4999 51.5577C44.12 50.9754 46.2977 49.9813 47.9728 48.3062C49.648 46.631 50.6421 44.4533 51.2243 41.8332C51.8016 39.2358 52 36.0847 52 32.3333C52 28.5819 51.8016 25.4309 51.2243 22.8335C50.6421 20.2134 49.648 18.0356 47.9728 16.3605C46.2977 14.6853 44.12 13.6913 41.4999 13.109C38.9024 12.5317 35.7514 12.3333 32 12.3333ZM24 28.3333C24 27.2288 24.8954 26.3333 26 26.3333H38C39.1046 26.3333 40 27.2288 40 28.3333C40 29.4379 39.1046 30.3333 38 30.3333H26C24.8954 30.3333 24 29.4379 24 28.3333ZM24 36.3333C24 35.2288 24.8954 34.3333 26 34.3333H38C39.1046 34.3333 40 35.2288 40 36.3333C40 37.4379 39.1046 38.3333 38 38.3333H26C24.8954 38.3333 24 37.4379 24 36.3333Z" fill="black"/>
</svg>
