<svg width="32" height="32" viewBox="0 0 32 32" fill="none" xmlns="http://www.w3.org/2000/svg">
<g clip-path="url(#clip0_25_270)">
<path d="M16 4.33309C13.2218 4.32261 10.531 5.30393 8.41174 7.1005C6.29252 8.89706 4.88399 11.3909 4.43957 14.1334C3.99514 16.8759 4.544 19.687 5.9874 22.0609C7.43079 24.4348 9.67397 26.2156 12.3133 27.0831C12.8967 27.1764 13.0833 26.8148 13.0833 26.4998V24.5281C9.85167 25.2281 9.16334 22.9998 9.16334 22.9998C8.94546 22.2752 8.47313 21.6537 7.83334 21.2498C6.77167 20.5264 7.915 20.5498 7.915 20.5498C8.28122 20.5971 8.63199 20.7267 8.94109 20.9287C9.25019 21.1307 9.50963 21.4 9.7 21.7164C10.0241 22.2927 10.5625 22.7177 11.1983 22.899C11.8341 23.0803 12.5157 23.0033 13.095 22.6848C13.1482 22.0933 13.4085 21.5397 13.83 21.1214C11.3333 20.8648 8.55667 19.8614 8.55667 15.4164C8.52292 14.2515 8.94096 13.1186 9.72334 12.2548C9.36813 11.2508 9.40986 10.149 9.84 9.17476C9.84 9.17476 10.82 8.85976 13.0483 10.3414C14.9589 9.82783 16.9711 9.82783 18.8817 10.3414C21.11 8.83642 22.09 9.17476 22.09 9.17476C22.5201 10.149 22.5619 11.2508 22.2067 12.2548C22.989 13.1186 23.4071 14.2515 23.3733 15.4164C23.3733 19.8731 20.6433 20.8531 18.0417 21.1448C18.3219 21.4264 18.5386 21.7647 18.6775 22.1369C18.8163 22.5091 18.874 22.9067 18.8467 23.3031V26.4998C18.8467 26.8148 19.0333 27.1881 19.6283 27.0831C22.2629 26.2172 24.5028 24.4411 25.9465 22.0733C27.3902 19.7055 27.9433 16.9009 27.5065 14.1623C27.0697 11.4237 25.6717 8.93023 23.5631 7.129C21.4545 5.32776 18.7732 4.33655 16 4.33309Z" fill="#FCFFFF"/>
</g>
<defs>
<clipPath id="clip0_25_270">
<rect width="28" height="28" fill="white" transform="translate(2 2)"/>
</clipPath>
</defs>
</svg>
