<svg width="64" height="65" viewBox="0 0 64 65" fill="none" xmlns="http://www.w3.org/2000/svg">
<path d="M50 32.6667C50 42.6079 41.9412 50.6667 32 50.6667M50 32.6667C50 22.7255 41.9412 14.6667 32 14.6667M50 32.6667H14M32 50.6667C22.0589 50.6667 14 42.6079 14 32.6667M32 50.6667C32 50.6667 40 44.6667 40 32.6667C40 20.6667 32 14.6667 32 14.6667M32 50.6667C32 50.6667 24 44.6667 24 32.6667C24 20.6667 32 14.6667 32 14.6667M32 14.6667C22.0589 14.6667 14 22.7255 14 32.6667" stroke="black" stroke-width="2"/>
</svg>
