<?xml version="1.0" encoding="utf-8"?>
<!-- Generator: Adobe Illustrator 27.0.0, SVG Export Plug-In . SVG Version: 6.00 Build 0)  -->
<svg version="1.1" id="Layer_1" xmlns="http://www.w3.org/2000/svg" xmlns:xlink="http://www.w3.org/1999/xlink" x="0px" y="0px"
	 viewBox="0 0 800 800" style="enable-background:new 0 0 800 800;" xml:space="preserve">
<style type="text/css">
	.st0{fill:none;stroke:#000000;stroke-width:50;stroke-linecap:round;stroke-miterlimit:133.3333;}
	.st1{fill:none;stroke:#000000;stroke-width:50;stroke-linecap:round;stroke-linejoin:round;stroke-miterlimit:133.3333;}
</style>
<path class="st0" d="M319.4,265.5c0.3-58.5,2.9-90.2,23.6-110.9C366.6,131,404.6,131,480.7,131h26.9c76.1,0,114.1,0,137.8,23.6
	C669,178.3,669,216.3,669,292.4v215.2c0,76.1,0,114.1-23.6,137.8C621.7,669,583.7,669,507.6,669h-26.9c-76.1,0-114.1,0-137.8-23.6
	c-20.7-20.7-23.3-52.4-23.6-110.9"/>
<path class="st1" d="M480.7,400H131 M131,400l94.1-80.7 M131,400l94.1,80.7"/>
</svg>
