<svg width="64" height="65" viewBox="0 0 64 65" fill="none" xmlns="http://www.w3.org/2000/svg">
<path d="M32.18 49.6533C31.4512 49.6523 30.723 49.6057 30 49.5133C26.1497 49.0119 22.5732 47.2513 19.8276 44.5057C17.082 41.7601 15.3214 38.1837 14.82 34.3333C14.2409 29.9815 15.3264 25.5716 17.8591 21.9857C20.3918 18.3998 24.1851 15.9025 28.48 14.9933C28.9508 14.8863 29.4428 14.9204 29.8944 15.0911C30.3462 15.2618 30.7376 15.5616 31.02 15.9533C31.3094 16.3587 31.4732 16.8404 31.491 17.3382C31.5088 17.8361 31.3798 18.3282 31.12 18.7533C29.8994 20.8476 29.4336 23.2971 29.8 25.6933C30.1396 27.8949 31.1718 29.9311 32.747 31.5063C34.3222 33.0813 36.3584 34.1137 38.56 34.4533C40.9588 34.8323 43.4146 34.3581 45.5 33.1133C45.929 32.8593 46.4232 32.7371 46.921 32.7619C47.419 32.7869 47.8986 32.9577 48.3 33.2533C48.692 33.5307 48.9926 33.9183 49.1636 34.3671C49.3344 34.8159 49.368 35.3053 49.26 35.7733C48.4488 39.7007 46.3056 43.2275 43.1932 45.7567C40.081 48.2859 36.1904 49.6625 32.18 49.6533ZM28 18.3333C25.5863 19.0426 23.3987 20.3677 21.6521 22.1784C19.9056 23.989 18.6602 26.223 18.0383 28.6607C17.4164 31.0983 17.4394 33.6559 18.1052 36.0819C18.7709 38.5079 20.0563 40.7191 21.8352 42.4981C23.6141 44.2769 25.8253 45.5623 28.2514 46.2281C30.6774 46.8939 33.235 46.9169 35.6726 46.2949C38.1104 45.6731 40.3442 44.4277 42.155 42.6811C43.9656 40.9345 45.2906 38.7469 46 36.3333C44.1066 37.2563 42.023 37.7229 39.9166 37.6953C37.8104 37.6679 35.7398 37.1471 33.871 36.1747C32.0022 35.2025 30.3874 33.8057 29.156 32.0967C27.9245 30.3875 27.1108 28.4137 26.78 26.3333C26.359 23.6046 26.7848 20.8124 28 18.3333Z" fill="black"/>
</svg>
