<svg width="64" height="64" viewBox="0 0 64 64" fill="none" xmlns="http://www.w3.org/2000/svg">
<path fill-rule="evenodd" clip-rule="evenodd" d="M46 35.86C45.7408 35.8896 45.4792 35.8896 45.22 35.86C44.9617 35.8052 44.7077 35.7317 44.46 35.64C44.2229 35.5331 43.9954 35.4059 43.78 35.26C43.56 35.1107 43.3526 34.9434 43.16 34.76C42.9786 34.5781 42.8176 34.3769 42.68 34.16C42.5339 33.9377 42.4068 33.7036 42.3 33.46C42.1967 33.2233 42.1228 32.9747 42.08 32.72C42.0504 32.4608 42.0504 32.1992 42.08 31.94C42.0792 30.8837 42.4962 29.87 43.24 29.12C43.4274 28.9308 43.6354 28.7631 43.86 28.62C44.0707 28.4666 44.299 28.339 44.54 28.24C44.7846 28.1393 45.0394 28.0655 45.3 28.02C45.9443 27.8939 46.6097 27.9282 47.2375 28.1201C47.8653 28.3119 48.4363 28.6553 48.9 29.12C49.645 29.8695 50.0632 30.8833 50.0632 31.94C50.0632 32.9967 49.645 34.0106 48.9 34.76C48.5142 35.1272 48.059 35.4136 47.561 35.6025C47.063 35.7914 46.5323 35.879 46 35.86ZM32 36C31.7408 36.0296 31.4792 36.0296 31.22 36C30.9594 35.9545 30.7046 35.8807 30.46 35.78C30.219 35.681 29.9907 35.5534 29.78 35.4C29.5579 35.2618 29.356 35.0935 29.18 34.9C28.7984 34.5208 28.4972 34.0685 28.2945 33.5702C28.0917 33.072 27.9916 32.5379 28 32C27.9704 31.7408 27.9704 31.4792 28 31.22C28.0428 30.9653 28.1167 30.7167 28.22 30.48C28.3145 30.2306 28.4424 29.9952 28.6 29.78C28.8971 29.3498 29.2698 28.9771 29.7 28.68C29.9107 28.5266 30.139 28.399 30.38 28.3C30.6246 28.1993 30.8794 28.1255 31.14 28.08C31.7842 27.9539 32.4496 27.9882 33.0775 28.1801C33.7053 28.3719 34.2763 28.7153 34.74 29.18C34.9335 29.356 35.1018 29.5579 35.24 29.78C35.3896 30.0001 35.5169 30.2346 35.62 30.48C35.7233 30.7167 35.7972 30.9653 35.84 31.22C35.9233 31.4729 35.977 31.7347 36 32C36 33.0609 35.5786 34.0783 34.8284 34.8284C34.0783 35.5786 33.0609 36 32 36ZM15.18 34.98C15.93 35.7238 16.9437 36.1408 18 36.14C19.045 36.1623 20.0572 35.7746 20.82 35.06C21.0092 34.8726 21.1769 34.6646 21.32 34.44C21.4659 34.2246 21.5931 33.9971 21.7 33.76C21.8034 33.5163 21.8772 33.2612 21.92 33C22.0267 32.4855 22.0267 31.9545 21.92 31.44C21.8772 31.1853 21.8033 30.9368 21.7 30.7C21.5932 30.4564 21.4661 30.2223 21.32 30C21.1818 29.7779 21.0135 29.576 20.82 29.4C20.0706 28.655 19.0567 28.2368 18 28.2368C16.9433 28.2368 15.9295 28.655 15.18 29.4C14.9865 29.576 14.8182 29.7779 14.68 30C14.5101 30.1938 14.3562 30.4012 14.22 30.62C14.1167 30.8568 14.0428 31.1053 14 31.36C13.8933 31.8745 13.8933 32.4055 14 32.92C14.0683 33.1847 14.1691 33.44 14.3 33.68C14.407 33.9171 14.5341 34.1446 14.68 34.36C14.8231 34.5846 14.9908 34.7926 15.18 34.98Z" fill="black"/>
</svg>
