<svg width="64" height="64" viewBox="0 0 64 64" fill="none" xmlns="http://www.w3.org/2000/svg">
<path fill-rule="evenodd" clip-rule="evenodd" d="M33 14.8571C33 14.3048 32.5523 13.8571 32 13.8571C31.4477 13.8571 31 14.3048 31 14.8571V31H14.8571C14.3049 31 13.8571 31.4477 13.8571 32C13.8571 32.5523 14.3049 33 14.8571 33H31V49.1428C31 49.6951 31.4477 50.1428 32 50.1428C32.5523 50.1428 33 49.6951 33 49.1428V33H49.1429C49.6951 33 50.1429 32.5523 50.1429 32C50.1429 31.4477 49.6951 31 49.1429 31H33V14.8571Z" fill="black"/>
</svg>
