<svg width="64" height="65" viewBox="0 0 64 65" fill="none" xmlns="http://www.w3.org/2000/svg">
<path d="M50 42.0833C50 43.326 48.9927 44.3333 47.75 44.3333C46.5073 44.3333 45.5 43.326 45.5 42.0833C45.5 40.8407 46.5073 39.8333 47.75 39.8333C48.9927 39.8333 50 40.8407 50 42.0833ZM33.5 42.8333H12.5C10.0147 42.8333 8 40.8186 8 38.3333V26.3333C8 23.848 10.0147 21.8333 12.5 21.8333H33.5C35.9853 21.8333 38 23.848 38 26.3333V38.3333C38 40.8156 35.9901 42.8285 33.5 42.8333ZM44 27.0833C44 25.0123 45.679 23.3333 47.75 23.3333C49.821 23.3333 51.5 25.0123 51.5 27.0833C51.5 29.1544 49.821 30.8333 47.75 30.8333C46.5073 30.8333 45.5 31.8407 45.5 33.0833V36.0833C45.5 37.326 46.5073 38.3333 47.75 38.3333C48.9927 38.3333 50 37.326 50 36.0833V35.0227C53.4627 34.0434 56 30.8597 56 27.0833C56 22.527 52.3063 18.8333 47.75 18.8333C43.1937 18.8333 39.5 22.527 39.5 27.0833C39.5 28.326 40.5073 29.3333 41.75 29.3333C42.9927 29.3333 44 28.326 44 27.0833ZM33.5 38.3333V26.3333H12.5V38.3333H33.5Z" fill="black"/>
</svg>
