<svg width="64" height="64" viewBox="0 0 64 64" fill="none" xmlns="http://www.w3.org/2000/svg">
<path fill-rule="evenodd" clip-rule="evenodd" d="M30 15C28.3431 15 27 16.3431 27 18V21H37V18C37 16.3431 35.6569 15 34 15H30ZM22 17H25.1C25.5633 14.7178 27.581 13 30 13H34C36.419 13 38.4367 14.7178 38.9 17H42C44.7615 17 47 19.2386 47 22V32C47 32.0973 46.9861 32.1914 46.9602 32.2803V46.0099C46.9602 48.7714 44.7216 51.0099 41.9602 51.0099H28.0145V50.9999C28.0097 51 28.0048 51 28 51H22C19.2386 51 17 48.7615 17 46V22C17 19.2386 19.2386 17 22 17ZM28.1416 49.0099H41.9602C43.617 49.0099 44.9602 47.6668 44.9602 46.0099V31.3552H45V22C45 20.3431 43.6569 19 42 19H39V22C39 22.5523 38.5523 23 38 23H26C25.4477 23 25 22.5523 25 22V19H22C20.3431 19 19 20.3431 19 22V46C19 47.6569 20.3431 49 22 49H28C28.0481 49 28.0953 49.0034 28.1416 49.0099Z" fill="black"/>
</svg>
