<svg width="64" height="65" viewBox="0 0 64 65" fill="none" xmlns="http://www.w3.org/2000/svg">
<path fill-rule="evenodd" clip-rule="evenodd" d="M30 15.6667C28.3431 15.6667 27 17.0098 27 18.6667V21.6667H37V18.6667C37 17.0098 35.6569 15.6667 34 15.6667H30ZM22 17.6667H25.1C25.5633 15.3844 27.581 13.6667 30 13.6667H34C36.419 13.6667 38.4367 15.3844 38.9 17.6667H42C44.7615 17.6667 47 19.9052 47 22.6667V32.6667C47 33.2189 46.5523 33.6667 46 33.6667C45.4477 33.6667 45 33.2189 45 32.6667V22.6667C45 21.0098 43.6569 19.6667 42 19.6667H39V22.6667C39 23.2189 38.5523 23.6667 38 23.6667H26C25.4477 23.6667 25 23.2189 25 22.6667V19.6667H22C20.3431 19.6667 19 21.0098 19 22.6667V46.6667C19 48.3236 20.3431 49.6667 22 49.6667H28C28.5523 49.6667 29 50.1144 29 50.6667C29 51.2189 28.5523 51.6667 28 51.6667H22C19.2386 51.6667 17 49.4282 17 46.6667V22.6667C17 19.9052 19.2386 17.6667 22 17.6667ZM48.7071 41.3738C49.0976 40.9832 49.0976 40.3501 48.7071 39.9596C48.3166 39.569 47.6834 39.569 47.2929 39.9596L38 49.2524L34.7071 45.9596C34.3166 45.569 33.6834 45.569 33.2929 45.9596C32.9024 46.3501 32.9024 46.9832 33.2929 47.3738L37.2929 51.3738C37.6834 51.7643 38.3166 51.7643 38.7071 51.3738L48.7071 41.3738Z" fill="black"/>
</svg>
