<svg width="64" height="65" viewBox="0 0 64 65" fill="none" xmlns="http://www.w3.org/2000/svg">
<path d="M51.8 49.5333L41.9 24.6333C41.7443 24.2552 41.4815 23.9307 41.144 23.6998C40.8065 23.4688 40.4089 23.3415 40 23.3333H38C37.5911 23.3415 37.1935 23.4688 36.856 23.6998C36.5185 23.9307 36.2557 24.2552 36.1 24.6333L31.3 36.7333C29.2316 35.5839 27.3445 34.1349 25.7 32.4333C29.1 28.4333 31.6 23.6333 31.9 19.3333H33.9C34.3941 19.3424 34.8756 19.1768 35.2597 18.8659C35.6438 18.5549 35.9059 18.1185 36 17.6333C36.0435 17.3467 36.0242 17.054 35.9433 16.7756C35.8625 16.4971 35.7221 16.2396 35.5319 16.0208C35.3416 15.8021 35.1061 15.6273 34.8416 15.5085C34.5771 15.3898 34.2899 15.33 34 15.3333H25.5V12.4333C25.509 11.9392 25.3435 11.4577 25.0326 11.0736C24.7216 10.6895 24.2852 10.4274 23.8 10.3333C23.5134 10.2898 23.2207 10.3092 22.9423 10.39C22.6638 10.4708 22.4063 10.6112 22.1875 10.8015C21.9687 10.9917 21.7939 11.2272 21.6752 11.4918C21.5565 11.7563 21.4967 12.0434 21.5 12.3333V15.3333H14.1C13.6059 15.3243 13.1244 15.4898 12.7403 15.8008C12.3562 16.1117 12.094 16.5482 12 17.0333C11.9565 17.32 11.9758 17.6126 12.0567 17.8911C12.1375 18.1695 12.2779 18.427 12.4681 18.6458C12.6584 18.8646 12.8939 19.0394 13.1584 19.1581C13.4229 19.2768 13.7101 19.3366 14 19.3333H27.9C27.6 22.3333 25.6 26.0333 23 29.4333C21.7949 27.8947 20.7243 26.2553 19.8 24.5333C19.611 24.1234 19.2949 23.7854 18.8986 23.5692C18.5023 23.3531 18.047 23.2703 17.6 23.3333C17.292 23.391 17.0019 23.5203 16.753 23.7108C16.5042 23.9012 16.3035 24.1474 16.1673 24.4296C16.0311 24.7118 15.963 25.0221 15.9687 25.3354C15.9744 25.6487 16.0536 25.9563 16.2 26.2333C17.3667 28.4255 18.7395 30.5015 20.3 32.4333C18.2868 34.508 15.9154 36.2018 13.3 37.4333C12.8635 37.6242 12.5007 37.9517 12.2663 38.3665C12.0319 38.7812 11.9384 39.2609 12 39.7333C12.0935 40.1919 12.3448 40.6031 12.7103 40.8955C13.0757 41.1878 13.5321 41.3428 14 41.3333L14.8 41.1333C17.8793 39.7425 20.663 37.7736 23 35.3333C24.9949 37.3683 27.2878 39.088 29.8 40.4333L26.2 49.5333C26.0682 49.8351 26.013 50.1648 26.0393 50.4931C26.0655 50.8214 26.1725 51.1381 26.3506 51.4151C26.5286 51.6921 26.7724 51.9209 27.0601 52.0811C27.3479 52.2413 27.6707 52.3279 28 52.3333C28.4059 52.3133 28.7982 52.1812 29.1336 51.9517C29.469 51.7222 29.7343 51.4044 29.9 51.0333L33.8 41.3333H44.2L48.1 51.0333C48.2657 51.4044 48.531 51.7222 48.8664 51.9517C49.2018 52.1812 49.5941 52.3133 50 52.3333C50.3293 52.3279 50.6521 52.2413 50.9399 52.0811C51.2276 51.9209 51.4714 51.6921 51.6494 51.4151C51.8275 51.1381 51.9344 50.8214 51.9607 50.4931C51.987 50.1648 51.9318 49.8351 51.8 49.5333ZM35.4 37.3333L39 28.2333L42.6 37.3333H35.4Z" fill="black"/>
</svg>
