<svg width="64" height="65" viewBox="0 0 64 65" fill="none" xmlns="http://www.w3.org/2000/svg">
<path fill-rule="evenodd" clip-rule="evenodd" d="M30.945 39.3883C31.2252 39.6685 31.6038 39.8281 32 39.8333C32.3962 39.8281 32.7748 39.6685 33.055 39.3883C33.3352 39.1081 33.4948 38.7295 33.5 38.3333V19.9532L38.94 25.3932C39.0784 25.5334 39.2436 25.6446 39.4256 25.7202C39.6076 25.7957 39.803 25.8342 40 25.8332C40.197 25.8342 40.3924 25.7957 40.5744 25.7202C40.7564 25.6446 40.9216 25.5334 41.06 25.3932C41.341 25.112 41.4986 24.7307 41.4986 24.3332C41.4986 23.9357 41.341 23.5545 41.06 23.2732L33.0952 15.3085C33.0839 15.2964 33.0724 15.2844 33.0606 15.2727C32.7794 14.9914 32.3978 14.8333 32 14.8333C31.6022 14.8333 31.2206 14.9914 30.9394 15.2727C30.9276 15.2845 30.916 15.2965 30.9046 15.3086L22.94 23.2732C22.675 23.5576 22.5308 23.9337 22.5376 24.3223C22.5445 24.7109 22.7019 25.0816 22.9768 25.3565C23.2516 25.6313 23.6224 25.7887 24.011 25.7956C24.3996 25.8024 24.7756 25.6582 25.06 25.3932L30.5 19.9532V38.3333C30.5052 38.7295 30.6648 39.1081 30.945 39.3883ZM44.44 49.8333H19.56C18.8664 49.8051 18.1852 49.6403 17.5554 49.3483C16.9256 49.0565 16.3595 48.6433 15.8895 48.1325C15.4195 47.6217 15.0549 47.0231 14.8165 46.3713C14.5781 45.7193 14.4705 45.0269 14.5 44.3333V38.3333C14.5 37.9355 14.658 37.5539 14.9393 37.2727C15.2207 36.9913 15.6022 36.8333 16 36.8333C16.3978 36.8333 16.7794 36.9913 17.0607 37.2727C17.342 37.5539 17.5 37.9355 17.5 38.3333V44.3333C17.4484 44.9271 17.6273 45.5181 17.9997 45.9835C18.372 46.4491 18.9093 46.7533 19.5 46.8333H44.44C45.0308 46.7533 45.568 46.4491 45.9404 45.9835C46.3128 45.5181 46.4916 44.9271 46.44 44.3333V38.3333C46.44 37.9355 46.598 37.5539 46.8794 37.2727C47.1606 36.9913 47.5422 36.8333 47.94 36.8333C48.3378 36.8333 48.7194 36.9913 49.0006 37.2727C49.282 37.5539 49.44 37.9355 49.44 38.3333V44.3333C49.5 45.7241 49.0082 47.0821 48.0718 48.1121C47.1354 49.1423 45.8302 49.7607 44.44 49.8333Z" fill="black"/>
</svg>
