<?xml version="1.0" encoding="utf-8"?>
<!-- Generator: Adobe Illustrator 27.0.0, SVG Export Plug-In . SVG Version: 6.00 Build 0)  -->
<svg version="1.1" id="Layer_2_00000111163016440791379230000004022251854405765814_"
	 xmlns="http://www.w3.org/2000/svg" xmlns:xlink="http://www.w3.org/1999/xlink" x="0px" y="0px" viewBox="0 0 161.4 161.4"
	 style="enable-background:new 0 0 161.4 161.4;" xml:space="preserve">
<style type="text/css">
	.st0{fill:#1B49BC;}
	.st1{fill:#2468FF;}
</style>
<g id="Layer_1-2">
	<g>
		<path class="st0" d="M54.2,79.1l47.9-47.9c11-11,28.9-11,39.9,0l11.2,11.2c11,11,11,28.9,0,39.9l-47.9,47.9c-11,11-28.9,11-39.9,0
			L54.2,119C43.2,108,43.2,90.1,54.2,79.1z"/>
		<path class="st1" d="M8.3,79.1l47.9-47.9c11-11,28.9-11,39.9,0l11.2,11.2c11,11,11,28.9,0,39.9l-47.9,47.9c-11,11-28.9,11-39.9,0
			L8.3,119C-2.8,108-2.8,90.1,8.3,79.1z"/>
		<circle class="st0" cx="98.3" cy="63.5" r="6.7"/>
	</g>
</g>
</svg>
