<?xml version="1.0" encoding="UTF-8"?>
<svg id="Layer_2" data-name="Layer 2" xmlns="http://www.w3.org/2000/svg" viewBox="0 0 627.57 134.9">
  <defs>
    <style>
      .cls-1 {
        fill: #f7f8f9;
        font-size: 102.51px;
      }

      .cls-2 {
        fill: #3880e8;
      }

      .cls-3 {
        font-family: Rubik-Bold, Rubik;
        font-variation-settings: 'wght' 700;
        font-weight: 700;
      }

      .cls-4 {
        fill: #76b4ff;
      }

      .cls-5 {
        font-family: Rubik-Regular, Rubik;
        font-variation-settings: 'wght' 400;
      }
    </style>
  </defs>
  <g id="Layer_1-2" data-name="Layer 1">
    <g>
      <text class="cls-1" transform="translate(168.53 87.13)"><tspan class="cls-3" x="0" y="0">Lingo</tspan><tspan class="cls-5" x="283.75" y="0">Lab</tspan></text>
      <g>
        <path class="cls-2" d="M31.79,105.38h56.04c7.43,0,13.45-6.02,13.45-13.45V55.83c0-7.43-6.02-13.45-13.45-13.45H31.79c-3.53,0-6.92,1.39-9.43,3.86L4.01,64.3c-5.35,5.27-5.35,13.9,0,19.17l18.34,18.05c2.52,2.48,5.9,3.86,9.43,3.86Z"/>
        <path class="cls-4" d="M121.54,23.3L103.21,5.24c-2.52-2.47-5.91-3.86-9.44-3.86H37.73c-7.43,0-13.45,6.02-13.45,13.45V50.93c0,7.43,6.02,13.45,13.45,13.45h56.04c3.53,0,6.92-1.39,9.44-3.86l18.33-18.06c5.36-5.26,5.36-13.9,0-19.16Zm-24.26,16.08c-3.87,0-7-3.13-7-7s3.13-7,7-7,7,3.13,7,7-3.13,7-7,7Z"/>
      </g>
    </g>
  </g>
</svg>